<svg xmlns="http://www.w3.org/2000/svg" viewBox="0 0 900 1200" role="img" aria-label="Premium graded trading card placeholder">
  <defs>
    <linearGradient id="bg" x1="0" x2="1" y1="0" y2="1">
      <stop offset="0" stop-color="#2b1608"/>
      <stop offset="0.45" stop-color="#7a2d12"/>
      <stop offset="1" stop-color="#0d0d12"/>
    </linearGradient>
    <linearGradient id="gold" x1="0" x2="1">
      <stop offset="0" stop-color="#c9a84c"/>
      <stop offset="1" stop-color="#e2c47a"/>
    </linearGradient>
    <filter id="grain">
      <feTurbulence type="fractalNoise" baseFrequency="0.7" numOctaves="3" stitchTiles="stitch"/>
      <feColorMatrix type="saturate" values="0"/>
      <feComponentTransfer>
        <feFuncA type="table" tableValues="0 0.16"/>
      </feComponentTransfer>
    </filter>
  </defs>
  <rect width="900" height="1200" fill="#07070a"/>
  <rect x="58" y="58" width="784" height="1084" rx="28" fill="url(#bg)" stroke="url(#gold)" stroke-width="10"/>
  <rect x="98" y="98" width="704" height="1004" rx="18" fill="none" stroke="#c9a84c" stroke-opacity="0.35" stroke-width="2"/>
  <rect x="128" y="128" width="644" height="84" rx="10" fill="#111118" fill-opacity="0.76" stroke="#2a2a3a"/>
  <text x="162" y="181" fill="#f0ece8" font-family="Georgia, serif" font-size="42" font-weight="300">Charizard Holo</text>
  <text x="650" y="181" fill="#c9a84c" font-family="monospace" font-size="24">PSA 9</text>
  <circle cx="450" cy="560" r="230" fill="#c9a84c" fill-opacity="0.09" stroke="#c9a84c" stroke-opacity="0.55" stroke-width="2"/>
  <path d="M303 626c66-124 108-222 81-310 98 46 127 112 122 180 57-24 94-68 112-132 50 84 29 170-38 239 39 13 73 38 101 73-84 5-147-3-190-24-47 33-111 35-188-26Z" fill="url(#gold)" opacity="0.95"/>
  <path d="M365 645c45 26 101 29 152 2-14 61-64 97-137 111 10-35 5-72-15-113Z" fill="#e06060" opacity="0.78"/>
  <rect x="128" y="873" width="644" height="88" rx="10" fill="#111118" fill-opacity="0.72" stroke="#2a2a3a"/>
  <text x="162" y="924" fill="#8a8680" font-family="monospace" font-size="22">BASE SET · 1ST EDITION · 4/102</text>
  <rect x="128" y="990" width="218" height="54" rx="8" fill="#c9a84c"/>
  <text x="160" y="1025" fill="#07070a" font-family="monospace" font-size="20" font-weight="700">VAULT ASSET</text>
  <rect width="900" height="1200" filter="url(#grain)" opacity="0.35"/>
</svg>
